# xmcd
#
# Track frame offsets:
#	183
#	12058
#	27975
#	41075
#	59378
#	70185
#	84733
#	102060
#	115185
#	124678
#	136625
#	154585
#	172548
#	188465
#	201305
#	212283
#	225508
#	238635
#	249020
#	261480
#
# Disc length: 3621 seconds
#
# Revision: 1
# Processed by: cddbd v1.4PL0 Copyright (c) Steve Scherf et al.
# Submitted via: audiograbber 1.81.02
#
DISCID=f40e2314
DTITLE=Crystal Gayle - Don't It Make My Brown Eyes Blue
DYEAR=1991
DGENRE=Country
TTITLE0=Don't It Make My Brown Eyes Blue
TTITLE1=I'll Get Over You
TTITLE2=Talking In Your Sleep
TTITLE3=Half The Way
TTITLE4=Ready For The Times To Get Better
TTITLE5=Cry Me A River
TTITLE6=You'll Never Miss A Real Good Thing (Till He Says Goodbye)
TTITLE7=I'll Do It All Over Again
TTITLE8=Your Kisses Will
TTITLE9=Beyond You
TTITLE10=Straight To The Heart
TTITLE11=You And I (with Eddie Rabbitt)
TTITLE12=It's Like We Never Said Goodbye
TTITLE13=When I Dream
TTITLE14=Somebody Loves You
TTITLE15=Why Have You Left The One You Left Me For
TTITLE16=The Wayward Wind
TTITLE17=Your Old Cold Shoulder
TTITLE18=This Is My Year For Mexico
TTITLE19=Wrong Road Again
EXTD=
EXTT0=
EXTT1=
EXTT2=
EXTT3=
EXTT4=
EXTT5=
EXTT6=
EXTT7=
EXTT8=
EXTT9=
EXTT10=
EXTT11=
EXTT12=
EXTT13=
EXTT14=
EXTT15=
EXTT16=
EXTT17=
EXTT18=
EXTT19=
PLAYORDER=
